<?xml version="1.0" encoding="utf-8"?>
<!-- Generator: Adobe Illustrator 24.3.0, SVG Export Plug-In . SVG Version: 6.00 Build 0)  -->
<svg version="1.1" id="Слой_1" xmlns="http://www.w3.org/2000/svg" xmlns:xlink="http://www.w3.org/1999/xlink" x="0px" y="0px"
	 viewBox="0 0 128 128" style="enable-background:new 0 0 128 128;" xml:space="preserve">
<style type="text/css">
	.st0{fill:#FBB03B;stroke:#FBB03B;stroke-miterlimit:10;}
	.st1{fill:#FFFFFF;stroke:#000000;stroke-miterlimit:10;}
	.st2{fill:#FBB03B;stroke:#000000;stroke-miterlimit:10;}
	.st3{fill:#FFD90A;stroke:#FBB03B;stroke-miterlimit:10;}
	.st4{fill:#FFFF00;stroke:#FFFF00;stroke-miterlimit:10;}
	.st5{fill:#FF0000;stroke:#FF0000;stroke-miterlimit:10;}
	.st6{fill:#F7931E;stroke:#F7931E;stroke-miterlimit:10;}
	.st7{fill:#39B54A;stroke:#39B54A;stroke-miterlimit:10;}
	.st8{fill:#ED1C24;stroke:#ED1C24;stroke-miterlimit:10;}
	.st9{fill:#F15A24;stroke:#F15A24;stroke-miterlimit:10;}
	.st10{fill:#93278F;stroke:#93278F;stroke-miterlimit:10;}
	.st11{fill:#00FF00;stroke:#00FF00;stroke-miterlimit:10;}
	.st12{fill:#C1272D;stroke:#C1272D;stroke-miterlimit:10;}
	.st13{fill:#9E005D;stroke:#9E005D;stroke-miterlimit:10;}
	.st14{fill:#8CC63F;stroke:#8CC63F;stroke-miterlimit:10;}
	.st15{fill:#00A99D;stroke:#00A99D;stroke-miterlimit:10;}
	.st16{fill:#C7B299;stroke:#C7B299;stroke-miterlimit:10;}
	.st17{fill:#FCEE21;stroke:#FCEE21;stroke-miterlimit:10;}
	.st18{fill:#ED1E79;stroke:#ED1E79;stroke-miterlimit:10;}
	.st19{fill:#662D91;stroke:#662D91;stroke-miterlimit:10;}
	.st20{fill:#FF0000;}
	.st21{font-family:'MyriadPro-Regular';}
	.st22{font-size:18px;}
	.st23{fill:#FFFF00;}
	.st24{fill:#00FF00;}
	.st25{fill:#F15A24;}
	.st26{fill:#93278F;}
	.st27{fill:#8CC63F;}
	.st28{fill:#0071BC;}
	.st29{fill:#662D91;}
	.st30{font-size:7.4607px;}
	.st31{fill:#736357;}
	.st32{font-size:11.2601px;}
	.st33{fill:none;}
	.st34{fill:#C69C6D;}
	.st35{font-size:8.6979px;}
	.st36{fill:#C1272D;}
	.st37{font-size:8.7145px;}
	.st38{fill:#FBB03B;}
	.st39{font-size:9.057px;}
	.st40{fill:#22B573;}
	.st41{font-size:12.521px;}
	.st42{font-size:9.194px;}
	.st43{font-size:6.8117px;}
	.st44{fill:#39B54A;}
	.st45{font-size:10.941px;}
	.st46{font-size:11.235px;}
	.st47{fill:#ED1E79;}
	.st48{font-size:10.8639px;}
	.st49{font-size:13.7933px;}
	.st50{font-size:7.0166px;}
	.st51{fill:#00A99D;}
	.st52{font-size:10.2px;}
	.st53{fill:#D9E021;}
	.st54{font-size:7.9866px;}
	.st55{fill:#1B1464;}
	.st56{font-size:8.8352px;}
</style>
<path class="st0" d="M112,64c0,26.51-21.49,48-48,48S16,90.51,16,64H112z"/>
<path class="st1" d="M18.65,69.37"/>
<path class="st2" d="M16,64"/>
<ellipse class="st3" cx="64" cy="64" rx="48" ry="15"/>
<path class="st2" d="M107.5,70.34"/>
<path class="st2" d="M112,64"/>
<path class="st2" d="M16,64"/>
<rect x="21.51" y="66.76" transform="matrix(0.5547 -0.8321 0.8321 0.5547 -46.5511 49.5461)" class="st4" width="3" height="3"/>
<rect x="53.63" y="73.16" transform="matrix(-0.4903 -0.8716 0.8716 -0.4903 17.0832 159.3102)" class="st5" width="3" height="3"/>
<rect x="41.96" y="70.87" transform="matrix(0.9991 -0.043 0.043 0.9991 -3.0692 1.9338)" class="st6" width="3" height="3"/>
<rect x="46.74" y="62.93" transform="matrix(0.7904 -0.6126 0.6126 0.7904 -29.1846 42.6996)" class="st7" width="2.14" height="2.14"/>
<rect x="31.2" y="58.21" transform="matrix(0.9964 0.0846 -0.0846 0.9964 5.1699 -2.5529)" class="st8" width="3" height="3"/>
<rect x="55.16" y="54.35" class="st9" width="3" height="3"/>
<rect x="62.14" y="64.37" transform="matrix(0.7904 -0.6126 0.6126 0.7904 -27.0101 52.7876)" class="st4" width="3" height="3"/>
<rect x="69.27" y="72.38" transform="matrix(0.5547 -0.8321 0.8321 0.5547 -29.8628 91.4781)" class="st10" width="2.52" height="2.52"/>
<rect x="75.64" y="61.47" transform="matrix(0.2915 -0.9566 0.9566 0.2915 -5.6519 118.9057)" class="st11" width="3.61" height="3.61"/>
<rect x="84.46" y="70.28" transform="matrix(0.4161 -0.9093 0.9093 0.4161 -15.0792 120.0698)" class="st12" width="3" height="3"/>
<rect x="68.14" y="52.96" transform="matrix(0.1357 -0.9908 0.9908 0.1357 6.2359 116.0709)" class="st13" width="3" height="3"/>
<rect x="85.16" y="55.82" transform="matrix(0.2915 -0.9566 0.9566 0.2915 6.7412 122.3358)" class="st14" width="1.6" height="1.6"/>
<rect x="93.74" y="65.08" class="st4" width="2" height="2"/>
<rect x="99.41" y="56.65" transform="matrix(-0.5547 -0.8321 0.8321 -0.5547 108.5096 174.3704)" class="st15" width="3" height="3"/>
<rect x="32.25" y="66.2" transform="matrix(-0.2915 0.9566 -0.9566 -0.2915 108.3527 55.1566)" class="st11" width="3" height="3"/>
<rect x="42.21" y="54.6" class="st4" width="2.5" height="2.5"/>
<circle class="st13" cx="25.31" cy="61.77" r="1.5"/>
<circle class="st16" cx="40.72" cy="68.08" r="1"/>
<circle class="st15" cx="39.7" cy="59.4" r="1.25"/>
<circle class="st13" cx="55.35" cy="63.52" r="1.75"/>
<circle class="st17" cx="62.6" cy="73.12" r="0.75"/>
<circle class="st5" cx="71.11" cy="62.02" r="1"/>
<circle class="st18" cx="86.46" cy="65.02" r="1.5"/>
<circle class="st13" cx="104.53" cy="68.52" r="2"/>
<circle class="st4" cx="79.2" cy="74.62" r="0.75"/>
<circle class="st9" cx="78.7" cy="53.99" r="1.25"/>
<polygon class="st11" points="48.7,52.47 47.99,57.62 52.8,55.65 "/>
<polygon class="st14" points="62.2,57.92 63.36,61.18 65.61,58.55 "/>
<polygon class="st4" points="51.44,70.86 52.52,68.5 49.93,68.74 "/>
<polygon class="st15" points="74.11,67.52 73.24,69.02 74.97,69.02 "/>
<polygon class="st13" points="93.3,58.57 90.84,59.43 92.82,61.12 "/>
<polygon class="st5" points="37.53,72.62 35.79,72.62 36.66,74.12 "/>
<polygon class="st19" points="92.38,72.39 95.59,73.7 95.12,70.27 "/>
<text transform="matrix(1 0 0 1 30.9711 97.5736)"><tspan x="0" y="0" class="st20 st21 st22">S</tspan><tspan x="8.87" y="0" class="st23 st21 st22">o</tspan><tspan x="18.76" y="0" class="st24 st21 st22">l</tspan><tspan x="23" y="0" class="st25 st21 st22">y</tspan><tspan x="31.48" y="0" class="st26 st21 st22">a</tspan><tspan x="40.16" y="0" class="st27 st21 st22">n</tspan><tspan x="50.15" y="0" class="st28 st21 st22">k</tspan><tspan x="58.59" y="0" class="st26 st21 st22">a</tspan></text>
<text transform="matrix(1.4546 -0.2468 0.3897 0.9209 31.0578 13.1501)" class="st29 st21 st30">A</text>
<text transform="matrix(0.9903 -0.1219 0.1216 0.9926 61.0255 17.7977)" class="st31 st21 st32">B</text>
<rect x="48.86" y="21.6" class="st33" width="6.52" height="9.45"/>
<text transform="matrix(-1.2917 0 0 -1 55.373 23.7769)" class="st34 st21 st35">C</text>
<text transform="matrix(1.2611 0.2048 -0.2681 0.9634 77.7467 11.0907)" class="st36 st21 st37">D</text>
<text transform="matrix(1.2284 -0.1384 0.1726 0.985 92.8282 39.681)" class="st38 st21 st39">E</text>
<text transform="matrix(0.8961 -0.0523 0.047 0.9989 75.8784 25.3001)" class="st40 st21 st41">I</text>
<text transform="matrix(1.2173 0.087 -0.1065 0.9943 50.3517 14.1942)" class="st24 st21 st42">L</text>
<text transform="matrix(1.6453 -0.0695 0.1151 0.9934 38.5267 21.4016)" class="st27 st21 st43">M</text>
<text transform="matrix(0.8708 0.5243 -0.5442 0.839 24.3533 24.3021)" class="st44 st21 st45">N</text>
<text transform="matrix(0 -1.5545 1 0 68.6533 32.3477)" class="st23 st21 st46">O</text>
<text transform="matrix(0.6647 0.7273 -0.7922 0.6103 90.6854 13.8073)" class="st47 st21 st48">Q</text>
<text transform="matrix(0.7967 0.2095 -0.1693 0.9856 42.4777 39.1113)" class="st25 st21 st49">R</text>
<text transform="matrix(1.6002 0.0349 -0.0559 0.9984 29.5671 36.1295)" class="st20 st21 st50">S</text>
<text transform="matrix(1.1013 -0.0175 0.0192 0.9998 58.5487 41.3706)" class="st51 st21 st52">T</text>
<text transform="matrix(1.1798 0.4173 -0.7662 0.6426 85.1177 25.8613)" class="st53 st21 st54">U</text>
<text transform="matrix(1.2338 -0.2372 0.3076 0.9515 78.5736 38.882)" class="st55 st21 st56">V</text>
</svg>
